<?xml version="1.0"?>
<svg xmlns="http://www.w3.org/2000/svg" viewBox="0 0 700 210">
  <g id="Layer_3">
    <g>
      <g>
        <g>
          <g>
            <path d="M330.7646,18.1553q13.859,0,19.8,8.46t5.94,22.2305a49.3451,49.3451,0,0,1-2.61,16.6045,24.469,24.469,0,0,1-8.2343,11.61q-5.6265,4.273-14.8956,4.2754-13.5907,0-19.665-8.8652t-6.0752-22.4551a48.1361,48.1361,0,0,1,2.61-16.47,23.3156,23.3156,0,0,1,8.28-11.2959Q321.5839,18.1557,330.7646,18.1553Zm0,56.7a6.8849,6.8849,0,0,0,6.57-4.14,27.61,27.61,0,0,0,2.5644-10.08q.4937-5.94.4951-11.25,0-5.13-.54-10.8906a27.0143,27.0143,0,0,0-2.6094-9.81,6.8311,6.8311,0,0,0-6.4805-4.05,6.9194,6.9194,0,0,0-6.5253,4.05,26.3926,26.3926,0,0,0-2.6543,9.81q-.5406,5.7612-.54,10.8906,0,5.3117.54,11.25a28.1458,28.1458,0,0,0,2.6093,10.08A6.883,6.883,0,0,0,330.7646,74.8555Z" style="fill: #08182f"/>
            <path d="M391.334,31.6553q6.2988,0,9.9,3.375a18.1585,18.1585,0,0,1,5.04,8.91,46.9153,46.9153,0,0,1,1.44,11.835q0,11.521-5.58,18.54t-17.1,7.02a25.3793,25.3793,0,0,1-2.97-.1806,20.6916,20.6916,0,0,1-2.8809-.54V95.5557l-13.7695,1.17v-63.27l11.25-1.08.54,8.1006a12.9959,12.9959,0,0,1,5.5352-6.75A17.1136,17.1136,0,0,1,391.334,31.6553Zm-5.13,6.84q-4.5015,0-5.76,4.0957a29.0365,29.0365,0,0,0-1.2607,8.5947v22.59a10.6536,10.6536,0,0,0,6.3906,2.16,5.53,5.53,0,0,0,5.31-3.15,20.8859,20.8859,0,0,0,2.0254-7.7393q.4042-4.5908.4053-8.82,0-4.05-.36-8.1455a17.0531,17.0531,0,0,0-1.89-6.84A5.1688,5.1688,0,0,0,386.2041,38.4951Z" style="fill: #08182f"/>
            <path d="M417.7939,37.5059h-6.03v-2.79a44.1155,44.1155,0,0,0,8.5947-4.41,36.1592,36.1592,0,0,0,7.4248-6.21h3.87v9.3594h8.28v4.0508h-8.37v32.04a7.4967,7.4967,0,0,0,.99,4.1846,5.2553,5.2553,0,0,0,3.42,2.0254,6.418,6.418,0,0,1-3.4648,3.7343,12.1639,12.1639,0,0,1-5.2656,1.2149q-4.7711,0-7.1094-2.52-2.3423-2.5181-2.34-7.29Z" style="fill: #08182f"/>
            <path d="M452.4434,13.1152a9.5946,9.5946,0,0,1,5.85,1.6651,5.6277,5.6277,0,0,1,2.25,4.8154,5.45,5.45,0,0,1-2.43,4.8594,10.6377,10.6377,0,0,1-6.03,1.62,9.8258,9.8258,0,0,1-5.8047-1.62,5.3727,5.3727,0,0,1-2.2949-4.68,5.678,5.678,0,0,1,2.43-4.95A10.2284,10.2284,0,0,1,452.4434,13.1152Zm6.48,20.34v36.9a14.7107,14.7107,0,0,0,.5849,4.2754,7.8524,7.8524,0,0,0,2.2051,3.4648,6.2151,6.2151,0,0,1-3.1494,1.98,13.3792,13.3792,0,0,1-3.87.63q-4.6816,0-7.11-2.3848t-2.43-7.0644V33.4551Z" style="fill: #08182f"/>
            <path d="M470.4414,79.3555v-45.9l11.25-1.08.63,8.1006a12.52,12.52,0,0,1,5.49-6.75,17.3678,17.3678,0,0,1,8.64-2.07q5.4009,0,8.46,2.0254a12.2964,12.2964,0,0,1,4.59,5.7148A12.4334,12.4334,0,0,1,514.7666,33.5a16.1765,16.1765,0,0,1,7.875-1.8447q8.0083,0,11.1152,4.4551,3.1041,4.4546,3.1045,12.4648v21.78a14.7106,14.7106,0,0,0,.585,4.2754,7.8515,7.8515,0,0,0,2.2051,3.4648,6.2143,6.2143,0,0,1-3.15,1.98,13.3729,13.3729,0,0,1-3.8692.63q-4.6816,0-7.11-2.3848t-2.43-7.0644v-21.96a33.6857,33.6857,0,0,0-.7656-7.4258q-.7662-3.375-4.7246-3.375a4.8573,4.8573,0,0,0-4.545,2.3858,14.8276,14.8276,0,0,0-1.8,5.8046,55.834,55.834,0,0,0-.4052,6.57v26.1H497.0811v-30.06a31.8221,31.8221,0,0,0-.81-7.4258q-.81-3.375-4.86-3.375-4.95,0-6.0752,4.86a43.7065,43.7065,0,0,0-1.125,9.9v26.1Z" style="fill: #08182f"/>
            <path d="M588.3418,33.4551v36.9a14.7072,14.7072,0,0,0,.585,4.2754,7.8521,7.8521,0,0,0,2.205,3.4648,6.7851,6.7851,0,0,1-3.1045,1.98,12.3427,12.3427,0,0,1-3.8252.63q-6.9315,0-8.55-5.3994a11.1242,11.1242,0,0,1-5.1757,4.59,17.2,17.2,0,0,1-6.9746,1.44q-10.26,0-13.05-6.4355-2.79-6.4337-2.79-16.7852v-24.66h13.95v24.21q0,4.4108.2695,8.3252a16.0926,16.0926,0,0,0,1.5752,6.3907,4.6977,4.6977,0,0,0,4.545,2.4746,5.171,5.171,0,0,0,5.13-3.15,16.4815,16.4815,0,0,0,1.4405-6.93v-31.32Z" style="fill: #08182f"/>
            <path d="M599.7715,79.3555v-45.9l11.25-1.08.63,8.1006a12.52,12.52,0,0,1,5.49-6.75,17.3676,17.3676,0,0,1,8.64-2.07q5.4008,0,8.46,2.0254a12.297,12.297,0,0,1,4.59,5.7148A12.4334,12.4334,0,0,1,644.0967,33.5a16.1765,16.1765,0,0,1,7.875-1.8447q8.0082,0,11.1152,4.4551,3.1041,4.4546,3.1045,12.4648v21.78a14.7072,14.7072,0,0,0,.585,4.2754,7.8521,7.8521,0,0,0,2.205,3.4648,6.214,6.214,0,0,1-3.15,1.98,13.3735,13.3735,0,0,1-3.8692.63q-4.6817,0-7.11-2.3848-2.43-2.3834-2.43-7.0644v-21.96a33.6918,33.6918,0,0,0-.7656-7.4258q-.7662-3.375-4.7247-3.375a4.8573,4.8573,0,0,0-4.5449,2.3858,14.8259,14.8259,0,0,0-1.8,5.8046,55.8348,55.8348,0,0,0-.4053,6.57v26.1h-13.77v-30.06a31.8223,31.8223,0,0,0-.81-7.4258q-.81-3.375-4.86-3.375-4.95,0-6.0752,4.86a43.7008,43.7008,0,0,0-1.125,9.9v26.1Z" style="fill: #08182f"/>
          </g>
          <g>
            <path d="M335.5918,133.7813h-5.17V119.5859H315.9033v14.1954h-5.1484V102.2881h5.1484V115.17h14.5186V102.2881h5.17Z" style="fill: #005b99"/>
            <path d="M365.0078,133.7813H347.1934V102.2881h17.8144V106.64h-12.666v8.5733h11.8691v4.3086H352.3418v9.8867h12.666Z" style="fill: #005b99"/>
            <path d="M394.6611,133.7813l-3.1455-8.7452h-12.041l-3.08,8.7452h-5.4287l11.7832-31.6221H388.35l11.7822,31.6221Zm-4.5019-13.1827-2.9512-8.5732q-.3237-.8613-.8945-2.7149-.5713-1.8515-.7862-2.7138a48.3731,48.3731,0,0,1-1.7011,5.7949l-2.8438,8.207Z" style="fill: #005b99"/>
            <path d="M407.5986,133.7813V102.2881h5.1485v27.0771h13.334v4.4161Z" style="fill: #005b99"/>
            <path d="M445.6953,133.7813h-5.1474V106.7041h-9.2627v-4.416H454.958v4.416h-9.2627Z" style="fill: #005b99"/>
            <path d="M487.9287,133.7813h-5.17V119.5859H468.24v14.1954h-5.1484V102.2881H468.24V115.17h14.5186V102.2881h5.17Z" style="fill: #005b99"/>
            <path d="M512.9287,106.252a8.487,8.487,0,0,0-6.98,3.1455q-2.5414,3.1449-2.541,8.6806,0,5.795,2.4443,8.7666a8.6332,8.6332,0,0,0,7.0762,2.9727,18.5378,18.5378,0,0,0,3.8779-.3985q1.8736-.3984,3.8985-1.0224v4.415a23.6347,23.6347,0,0,1-8.4014,1.4q-6.9141,0-10.6191-4.1894T497.98,118.0352a19.3669,19.3669,0,0,1,1.7988-8.5948,12.8261,12.8261,0,0,1,5.2022-5.6435,15.7333,15.7333,0,0,1,7.9912-1.961,19.8364,19.8364,0,0,1,8.9179,2.0254l-1.8525,4.2862a27.6487,27.6487,0,0,0-3.3711-1.3243A12.1381,12.1381,0,0,0,512.9287,106.252Z" style="fill: #005b99"/>
            <path d="M550.3369,133.7813l-3.1455-8.7452H535.15l-3.08,8.7452h-5.4287l11.7832-31.6221h5.6006l11.7822,31.6221Zm-4.5019-13.1827-2.9512-8.5732q-.3237-.8613-.8945-2.7149-.5713-1.8515-.7862-2.7138a48.3916,48.3916,0,0,1-1.7011,5.7949l-2.8438,8.207Z" style="fill: #005b99"/>
            <path d="M568.4219,121.2012v12.58h-5.1485V102.2881H572.17q6.0952,0,9.0254,2.2842,2.93,2.2823,2.93,6.8925,0,5.8813-6.1172,8.38l8.8965,13.9366h-5.8594l-7.539-12.58Zm0-4.2647h3.5761q3.5962,0,5.2129-1.3359a4.8459,4.8459,0,0,0,1.6153-3.9629,4.2672,4.2672,0,0,0-1.7451-3.835,9.5667,9.5667,0,0,0-5.2559-1.1631h-3.4033Z" style="fill: #005b99"/>
            <path d="M612.5938,133.7813H594.7793V102.2881h17.8145V106.64H599.9277v8.5733h11.8692v4.3086H599.9277v9.8867h12.6661Z" style="fill: #005b99"/>
            <path d="M637.4775,133.7813V102.2881h5.1485v31.4932Z" style="fill: #005b99"/>
            <path d="M665.127,133.7813H659.98V106.7041h-9.2627v-4.416H674.39v4.416H665.127Z" style="fill: #005b99"/>
          </g>
          <path d="M688.2369,106.09h-.9893v2.6813H685.42V101.19h2.9836a3.3328,3.3328,0,0,1,2.1088.5979,2.0281,2.0281,0,0,1,.76,1.6905,2.4616,2.4616,0,0,1-.32,1.3109,2.2724,2.2724,0,0,1-1.0025.8425l1.5829,3.0611v.0783h-1.9578Zm-.9893-1.4061h1.156a1.036,1.036,0,0,0,.7835-.2742,1.0589,1.0589,0,0,0,.263-.7648,1.0715,1.0715,0,0,0-.2657-.77,1.0268,1.0268,0,0,0-.7808-.2791h-1.156Zm1.0761,8.7956a7.8313,7.8313,0,1,1,7.8313-7.8313A7.84,7.84,0,0,1,688.3237,113.4793Zm0-14.0414a6.21,6.21,0,1,0,6.21,6.21A6.2171,6.2171,0,0,0,688.3237,99.4379Z" style="fill: #005b99"/>
        </g>
        <g>
          <path d="M138.4487,60.3286l-.1856.1851c-.02.02-.04.0405-.06.0613L122.229,77.35c-7.8311-7.7268-21.5235-20.0041-21.5225-20.0026-41.9922-40.1119-78.9375-25.16-90.7822.4633A60.27,60.27,0,0,0,6.7671,68.2385c-.1143-.0332-.2334-.0476-.3506-.07C11.0551,39.2346,33.602,19.42,64.2876,19.42,96.7661,19.42,118.1762,40.41,138.4487,60.3286Zm133.583,40.7193c-.0234-.011-.04-.0286-.0635-.04-.1386.3662-.2666.7375-.414,1.1008-11.8438,25.6235-48.4424,40.1223-90.4346.01l.0342.0227c-7.6465-5.99-14.6631-13.136-21.1319-19.7915l-.3359.3452L143.4165,99.3706c20.1582,20.1643,41.5,40.89,73.7734,40.89,26.62,0,47.1035-15.5884,55.0928-39.105C272.2,101.1189,272.1137,101.0859,272.0317,101.0479Z" style="fill: #f2633d"/>
          <path d="M275.69,75.0988C273.0226,42.6244,249.6607,19.42,217.19,19.42c-33.705,0-55.4882,22.6054-76.4511,43.5686l-.0005,0L124.295,80.2558c-15.4038,15.8071-34.0088,35.1982-56.5986,35.729l.0571.001.0269.0009c.1323.0044.2026.0049.2192.0049h.0054c-.0264,0-.3936.0093-1.0357.012-.0722,0-.1435.0059-.2163.0059-.0776,0-.1543-.0044-.2319-.0049-8.9946-.01-56.1387-2.2073-60.6465-31.802-.0669.0053-.1294.0168-.1978.0195a7.7315,7.7315,0,0,1,.0127.9172C7.8473,117.499,31.3956,140.26,64.2877,140.26c33.7026,0,55.4868-22.6026,76.4487-43.155l16.4444-16.8538c15.6079-16.0188,36.1615-36.8531,59.5667-36.8819-.0166,0,4.245-.0093,4.2508-.0088,5.6973,0,49.2078,3.0667,54.4666,31.76C275.5406,75.1147,275.6114,75.1015,275.69,75.0988Z" style="fill: #005b99"/>
          <path d="M232.4383,122.5584c-8.8125,0-17.9892-2.665-27.375-7.9375a31.5328,31.5328,0,0,0,8.6973,1.4658c21.002-.08,37.3906-16.0185,37.3145-36.2861l-.001-.1543c0-11.627-4.5479-21.8262-12.625-28.6338a84.8773,84.8773,0,0,1,8.7383,2.5166c15.61,5.4629,23.7675,14.2109,24.2451,26.001a70.2259,70.2259,0,0,1-.8116,9.61,55.786,55.786,0,0,1-3.207,11.2022A38.1768,38.1768,0,0,1,232.4383,122.5584ZM43.1131,108.7918c-15.8593-3.5244-32.8037-11.374-33.0859-28.8106l.0225-1.1669.09-2.2364c.04-.581.0928-1.1992.1543-1.8105l.0273-.2324c.0284-.2588.0635-.5069.1-.7549.0556-.39.1132-.7959.1533-1.2227a55.6243,55.6243,0,0,1,3.49-12.98A38.7116,38.7116,0,0,1,49.56,37.0984c8.0479,0,16.3975,2.2119,24.9219,6.5918a27.7105,27.7105,0,0,0-6.9053-1.02A37.3116,37.3116,0,0,0,30.4032,80.12l.001.1328C30.4042,91.8816,34.9813,102.0428,43.1131,108.7918Z" style="fill: #08182f"/>
        </g>
      </g>
      <g>
        <path d="M24.71,185.3564a6.3731,6.3731,0,0,1,1.2871,4.1534,6.4439,6.4439,0,0,1-2.4571,5.5771q-2.4579,1.7944-6.9814,1.794H7.16V170.8682h8.6181q8.6588,0,8.6582,6.98a5.2123,5.2123,0,0,1-.624,2.8282,6.86,6.86,0,0,1-1.3262,1.54c-.4677.39-.7666.6377-.8965.7412A8.4006,8.4006,0,0,1,24.71,185.3564ZM9.9678,182.1387h6.4345a7.61,7.61,0,0,0,3.8028-.8184q1.4238-.82,1.4238-3.2764,0-2.5341-1.3848-3.51a7.3089,7.3089,0,0,0-4.1923-.9756H9.9678Zm11.5049,11.0957q1.7153-1.0328,1.7158-3.8809,0-2.8081-1.7744-3.6855a10.78,10.78,0,0,0-4.7383-.877H9.9678v9.4766H16.793A9.0485,9.0485,0,0,0,21.4727,193.2344Z" style="fill: #f2633d"/>
        <path d="M46.5107,179.9551A12.5622,12.5622,0,0,1,48.5,187.6377H34.3037a7.93,7.93,0,0,0,1.6377,5.3818,5.8858,5.8858,0,0,0,4.68,1.8721,12.6357,12.6357,0,0,0,6.6689-1.6768v2.8858a15.6585,15.6585,0,0,1-6.8242,1.3652,8.4778,8.4778,0,0,1-6.63-2.6328q-2.38-2.6324-2.38-7.7021,0-4.9527,2.2431-7.5079a7.9379,7.9379,0,0,1,6.2979-2.5537Q44.4443,177.0693,46.5107,179.9551Zm-10.413.8769q-1.3272,1.191-1.6768,4.2315H45.5352a6.202,6.202,0,0,0-1.54-4.0752,5.4274,5.4274,0,0,0-3.998-1.3457A5.67,5.67,0,0,0,36.0977,180.832Z" style="fill: #f2633d"/>
        <path d="M57.3525,195.8867a4.909,4.909,0,0,1-1.3652-3.7246v-12.168H52.5938V177.42h3.3935v-5.499h2.8076v5.499h5.0313v2.5742H58.7949v11.27a4.4346,4.4346,0,0,0,.5459,2.4961,2.3142,2.3142,0,0,0,2.0283.78,5.8441,5.8441,0,0,0,2.4571-.4678v2.6514a8.0559,8.0559,0,0,1-1.3848.332,9.8692,9.8692,0,0,1-1.5791.1358A4.8639,4.8639,0,0,1,57.3525,195.8867Z" style="fill: #f2633d"/>
        <path d="M72.4844,195.8867a4.9087,4.9087,0,0,1-1.3653-3.7246v-12.168H67.7256V177.42h3.3935v-5.499h2.8077v5.499H78.958v2.5742H73.9268v11.27a4.4337,4.4337,0,0,0,.5459,2.4961,2.314,2.314,0,0,0,2.0283.78,5.8436,5.8436,0,0,0,2.457-.4678v2.6514a8.0535,8.0535,0,0,1-1.3848.332,9.8682,9.8682,0,0,1-1.5791.1358A4.8638,4.8638,0,0,1,72.4844,195.8867Z" style="fill: #f2633d"/>
        <path d="M99.082,179.9551a12.5629,12.5629,0,0,1,1.9893,7.6826H86.875a7.93,7.93,0,0,0,1.6377,5.3818,5.8857,5.8857,0,0,0,4.68,1.8721,12.6357,12.6357,0,0,0,6.6689-1.6768v2.8858a15.6585,15.6585,0,0,1-6.8242,1.3652,8.4777,8.4777,0,0,1-6.63-2.6328q-2.38-2.6324-2.38-7.7021,0-4.9527,2.2432-7.5079a7.9378,7.9378,0,0,1,6.2979-2.5537Q97.0156,177.0693,99.082,179.9551Zm-10.4131.8769q-1.327,1.191-1.6767,4.2315H98.1064a6.2014,6.2014,0,0,0-1.54-4.0752,5.4276,5.4276,0,0,0-3.998-1.3457A5.67,5.67,0,0,0,88.6689,180.832Z" style="fill: #f2633d"/>
        <path d="M107.3105,178.98a30.6826,30.6826,0,0,1,3.919-1.2676,19.7171,19.7171,0,0,1,5.0508-.6426,5.3912,5.3912,0,0,1,1.248.2334v2.4961a15.0594,15.0594,0,0,0-1.872-.1172,16.9439,16.9439,0,0,0-2.379.1563q-1.0927.1567-3.1591.5068v16.5362h-2.8077Z" style="fill: #f2633d"/>
        <path d="M138.55,196.7637a23.6755,23.6755,0,0,1-3.8613-1.7158v-3.042a11.51,11.51,0,0,0,3.5293,1.9306,13.99,13.99,0,0,0,4.7383.7608,6.3826,6.3826,0,0,0,4.2509-1.209,4.0991,4.0991,0,0,0,1.4043-3.2764,3.8275,3.8275,0,0,0-.8193-2.5156,5.9552,5.9552,0,0,0-1.9492-1.56q-1.1324-.5653-3.3936-1.4238a28.1022,28.1022,0,0,1-3.8418-1.56,6.8229,6.8229,0,0,1-2.4375-2.1845,6.52,6.52,0,0,1-1.0136-3.8223,6.6266,6.6266,0,0,1,.8-3.1192,6.3473,6.3473,0,0,1,2.5742-2.5351,9.1653,9.1653,0,0,1,4.582-1.0147,12.0758,12.0758,0,0,1,3.3731.3907,23.8235,23.8235,0,0,1,3.4521,1.4423v2.8868q-.2739-.1553-1.4629-.8389a9.47,9.47,0,0,0-2.457-.9941,11.4836,11.4836,0,0,0-2.749-.3125,5.9821,5.9821,0,0,0-3.9786,1.1113,3.5341,3.5341,0,0,0-1.2871,2.789,4.075,4.075,0,0,0,.6826,2.4571,5.0532,5.0532,0,0,0,1.8331,1.52,24.7287,24.7287,0,0,0,3.2568,1.2871,29.0149,29.0149,0,0,1,3.958,1.6182,7.5988,7.5988,0,0,1,2.6328,2.2822,6.2137,6.2137,0,0,1,1.0918,3.7822,7.29,7.29,0,0,1-2.0469,5.2266q-2.0478,2.1446-6.5722,2.1445A14.64,14.64,0,0,1,138.55,196.7637Z" style="fill: #f2633d"/>
        <path d="M159.16,194.8135q-2.2428-2.6514-2.2432-7.6045,0-5.0317,2.2822-7.586a8.4032,8.4032,0,0,1,6.61-2.5537q4.563,0,6.7861,2.71a11.3866,11.3866,0,0,1,2.2227,7.43q0,4.8354-2.34,7.5459a8.2372,8.2372,0,0,1-6.5908,2.7109Q161.4024,197.4658,159.16,194.8135Zm12.8505-7.6045a9.3349,9.3349,0,0,0-1.4433-5.6162q-1.4428-1.95-4.7188-1.95-6.123,0-6.123,7.5664,0,7.6831,6.123,7.6826Q172.01,194.8916,172.0107,187.209Z" style="fill: #f2633d"/>
        <path d="M181.0586,196.8809V170.01h2.8076v26.8711Z" style="fill: #f2633d"/>
        <path d="M193.2061,195.457a7.4812,7.4812,0,0,1-2.125-5.7129V177.42h2.8076v11.7a6.235,6.235,0,0,0,1.2871,4.3487,6.6083,6.6083,0,0,0,8.0928,0,6.1694,6.1694,0,0,0,1.3066-4.3487v-11.7h2.8076v12.3242a7.4849,7.4849,0,0,1-2.125,5.7129,10.0424,10.0424,0,0,1-12.0517,0Z" style="fill: #f2633d"/>
        <path d="M217.2109,195.8867a4.909,4.909,0,0,1-1.3652-3.7246v-12.168h-3.3936V177.42h3.3936v-5.499h2.8076v5.499h5.0313v2.5742h-5.0313v11.27a4.4346,4.4346,0,0,0,.5459,2.4961,2.3142,2.3142,0,0,0,2.0283.78,5.8441,5.8441,0,0,0,2.4571-.4678v2.6514a8.0559,8.0559,0,0,1-1.3848.332,9.8692,9.8692,0,0,1-1.5791.1358A4.8639,4.8639,0,0,1,217.2109,195.8867Z" style="fill: #f2633d"/>
        <path d="M229.73,170.8682h3.12v3.081h-3.12Zm.1562,6.5517h2.8077v19.461h-2.8077Z" style="fill: #f2633d"/>
        <path d="M241.332,194.8135q-2.2426-2.6514-2.2431-7.6045,0-5.0317,2.2822-7.586a8.4031,8.4031,0,0,1,6.61-2.5537q4.563,0,6.7862,2.71a11.3866,11.3866,0,0,1,2.2226,7.43q0,4.8354-2.34,7.5459a8.2372,8.2372,0,0,1-6.5908,2.7109Q243.5742,197.4658,241.332,194.8135Zm12.8506-7.6045a9.3349,9.3349,0,0,0-1.4433-5.6162q-1.443-1.95-4.7188-1.95-6.123,0-6.123,7.5664,0,7.6831,6.123,7.6826Q254.1816,194.8916,254.1826,187.209Z" style="fill: #f2633d"/>
        <path d="M271.458,177.0693q4.0957,0,5.9092,1.794a7.2019,7.2019,0,0,1,1.8135,5.3428v12.6748h-2.8086V184.2061q0-4.6011-5.2256-4.6026a18.3843,18.3843,0,0,0-5.1094.78v16.4971H263.23V178.98A17.993,17.993,0,0,1,271.458,177.0693Z" style="fill: #f2633d"/>
        <path d="M288.5,197.0762a16.6368,16.6368,0,0,1-3.0811-1.2481v-2.9638a21.5694,21.5694,0,0,0,3.2569,1.5791,9.0883,9.0883,0,0,0,3.0224.4482,5.4337,5.4337,0,0,0,3.1788-.8574,2.6052,2.6052,0,0,0,1.2285-2.2237,2.2034,2.2034,0,0,0-.7412-1.8134,9.0681,9.0681,0,0,0-2.34-1.2285l-1.0137-.4288a32.6905,32.6905,0,0,1-3.4521-1.1308,5.5334,5.5334,0,0,1-2.1445-1.6,4.4625,4.4625,0,0,1-.917-2.9639,4.914,4.914,0,0,1,.9756-3.12,5.8057,5.8057,0,0,1,2.5351-1.8516,8.9724,8.9724,0,0,1,3.2754-.6045,8.5413,8.5413,0,0,1,2.6328.3506q1.0723.3516,2.9444,1.17v2.8077q-1.9512-.9743-2.9834-1.3643a6.9053,6.9053,0,0,0-2.4375-.3906,5.8706,5.8706,0,0,0-2.9249.6826,2.1209,2.1209,0,0,0-1.2089,1.9307,2.3193,2.3193,0,0,0,.6045,1.6572,4.202,4.202,0,0,0,1.5205,1.0146,23.3422,23.3422,0,0,0,2.4765.7989q1.95.624,3.1006,1.1308a5.324,5.324,0,0,1,2.0283,1.6192,4.6832,4.6832,0,0,1,.877,2.9834,5.38,5.38,0,0,1-1.0137,3.3339,6.1387,6.1387,0,0,1-2.6328,2.0088,8.8067,8.8067,0,0,1-3.373.6631A12.8378,12.8378,0,0,1,288.5,197.0762Z" style="fill: #f2633d"/>
        <path d="M305.1533,192.9805h3.8994v3.9h-3.8994Z" style="fill: #f2633d"/>
        <path d="M346.2979,185.3564a6.3731,6.3731,0,0,1,1.2871,4.1534,6.4439,6.4439,0,0,1-2.4571,5.5771q-2.4579,1.7944-6.9814,1.794H328.748V170.8682h8.6182q8.6587,0,8.6582,6.98a5.2123,5.2123,0,0,1-.624,2.8282,6.86,6.86,0,0,1-1.3262,1.54c-.4678.39-.7666.6377-.8965.7412A8.4006,8.4006,0,0,1,346.2979,185.3564Zm-14.7422-3.2177H337.99a7.61,7.61,0,0,0,3.8028-.8184q1.4238-.82,1.4238-3.2764,0-2.5341-1.3848-3.51a7.3091,7.3091,0,0,0-4.1924-.9756h-6.0839Zm11.5048,11.0957q1.7154-1.0328,1.7159-3.8809,0-2.8081-1.7744-3.6855a10.78,10.78,0,0,0-4.7383-.877h-6.708v9.4766h6.8252A9.0481,9.0481,0,0,0,343.0605,193.2344Z" style="fill: #f2633d"/>
        <path d="M368.0986,179.9551a12.5629,12.5629,0,0,1,1.9893,7.6826H355.8916a7.93,7.93,0,0,0,1.6377,5.3818,5.8857,5.8857,0,0,0,4.68,1.8721,12.6357,12.6357,0,0,0,6.6689-1.6768v2.8858a15.6585,15.6585,0,0,1-6.8242,1.3652,8.4778,8.4778,0,0,1-6.63-2.6328q-2.38-2.6324-2.38-7.7021,0-4.9527,2.2432-7.5079a7.9379,7.9379,0,0,1,6.2979-2.5537Q366.0322,177.0693,368.0986,179.9551Zm-10.4131.8769q-1.3271,1.191-1.6767,4.2315H367.123a6.2014,6.2014,0,0,0-1.54-4.0752,5.4276,5.4276,0,0,0-3.998-1.3457A5.67,5.67,0,0,0,357.6855,180.832Z" style="fill: #f2633d"/>
        <path d="M378.94,195.8867a4.909,4.909,0,0,1-1.3652-3.7246v-12.168h-3.3936V177.42h3.3936v-5.499h2.8076v5.499h5.0313v2.5742h-5.0313v11.27a4.4346,4.4346,0,0,0,.5459,2.4961,2.3142,2.3142,0,0,0,2.0283.78,5.8444,5.8444,0,0,0,2.4571-.4678v2.6514a8.0559,8.0559,0,0,1-1.3848.332,9.8692,9.8692,0,0,1-1.5791.1358A4.8639,4.8639,0,0,1,378.94,195.8867Z" style="fill: #f2633d"/>
        <path d="M394.0723,195.8867a4.9087,4.9087,0,0,1-1.3653-3.7246v-12.168h-3.3935V177.42h3.3935v-5.499h2.8076v5.499h5.0313v2.5742h-5.0313v11.27a4.4346,4.4346,0,0,0,.5459,2.4961,2.3143,2.3143,0,0,0,2.0284.78,5.8439,5.8439,0,0,0,2.457-.4678v2.6514a8.0559,8.0559,0,0,1-1.3848.332,9.8682,9.8682,0,0,1-1.5791.1358A4.8636,4.8636,0,0,1,394.0723,195.8867Z" style="fill: #f2633d"/>
        <path d="M420.67,179.9551a12.5629,12.5629,0,0,1,1.9893,7.6826H408.4629a7.93,7.93,0,0,0,1.6377,5.3818,5.8857,5.8857,0,0,0,4.68,1.8721,12.6357,12.6357,0,0,0,6.6689-1.6768v2.8858a15.6585,15.6585,0,0,1-6.8242,1.3652,8.4777,8.4777,0,0,1-6.63-2.6328q-2.38-2.6324-2.38-7.7021,0-4.9527,2.2432-7.5079a7.9376,7.9376,0,0,1,6.2979-2.5537Q418.6035,177.0693,420.67,179.9551Zm-10.4131.8769q-1.327,1.191-1.6767,4.2315h11.1142a6.2014,6.2014,0,0,0-1.54-4.0752,5.4276,5.4276,0,0,0-3.998-1.3457A5.67,5.67,0,0,0,410.2568,180.832Z" style="fill: #f2633d"/>
        <path d="M428.8984,178.98a30.6773,30.6773,0,0,1,3.919-1.2676,19.7171,19.7171,0,0,1,5.0508-.6426,5.3921,5.3921,0,0,1,1.248.2334v2.4961a15.06,15.06,0,0,0-1.8721-.1172,16.9434,16.9434,0,0,0-2.3789.1563q-1.0927.1567-3.1591.5068v16.5362h-2.8077Z" style="fill: #f2633d"/>
        <path d="M459.8643,196.8809h-2.8077V170.8682h9.2422q4.3681,0,6.6885,2.0664a8.8305,8.8305,0,0,1,0,11.9345q-2.32,2.067-6.6885,2.0664h-6.4345Zm6.0839-12.6358q3.9,0,5.2256-1.4824a6.283,6.283,0,0,0,0-7.7217q-1.3257-1.4825-5.2256-1.4824h-6.0839v10.6865Z" style="fill: #f2633d"/>
        <path d="M495.2178,178.668a5.7388,5.7388,0,0,1,1.8916,4.6406v9.4385a3.6826,3.6826,0,0,1-2.3018,3.7636,17.0306,17.0306,0,0,1-6.3564.9551,9.8311,9.8311,0,0,1-5.2842-1.3652,4.9424,4.9424,0,0,1-2.2041-4.5625q0-3.4717,1.9111-5.0508a8.0252,8.0252,0,0,1,5.2647-1.5791,12.0765,12.0765,0,0,1,6.123,1.3643v-2.3008q0-4.3668-5.1084-4.3682a12.8406,12.8406,0,0,0-3.3935.4688,7.862,7.862,0,0,0-2.8858,1.4033V178.668a9.82,9.82,0,0,1,3.1787-1.17,19.079,19.079,0,0,1,3.9971-.4287A7.7562,7.7562,0,0,1,495.2178,178.668Zm-2.1651,15.8925a1.6147,1.6147,0,0,0,1.209-1.6572v-4.3681a10.7023,10.7023,0,0,0-2.457-.8,14.2714,14.2714,0,0,0-2.9248-.293,6.5051,6.5051,0,0,0-3.7832.9365,3.5192,3.5192,0,0,0,.2344,5.6748,7.3427,7.3427,0,0,0,3.7832.916A13.5029,13.5029,0,0,0,493.0527,194.5605Z" style="fill: #f2633d"/>
        <path d="M506.9365,195.8867a4.909,4.909,0,0,1-1.3652-3.7246v-12.168h-3.3936V177.42h3.3936v-5.499h2.8076v5.499H513.41v2.5742h-5.0313v11.27a4.4337,4.4337,0,0,0,.5459,2.4961,2.3141,2.3141,0,0,0,2.0283.78,5.8444,5.8444,0,0,0,2.4571-.4678v2.6514a8.0559,8.0559,0,0,1-1.3848.332,9.8692,9.8692,0,0,1-1.5791.1358A4.8639,4.8639,0,0,1,506.9365,195.8867Z" style="fill: #f2633d"/>
        <path d="M519.4551,170.8682h3.12v3.081h-3.12Zm.1562,6.5517h2.8076v19.461h-2.8076Z" style="fill: #f2633d"/>
        <path d="M543.8691,179.9551a12.5622,12.5622,0,0,1,1.9893,7.6826H531.6621A7.93,7.93,0,0,0,533.3,193.02a5.8857,5.8857,0,0,0,4.68,1.8721,12.6357,12.6357,0,0,0,6.6689-1.6768v2.8858a15.6585,15.6585,0,0,1-6.8242,1.3652,8.4778,8.4778,0,0,1-6.63-2.6328q-2.38-2.6324-2.38-7.7021,0-4.9527,2.2431-7.5079a7.9379,7.9379,0,0,1,6.2979-2.5537Q541.8027,177.0693,543.8691,179.9551Zm-10.413.8769q-1.3272,1.191-1.6768,4.2315h11.1143a6.202,6.202,0,0,0-1.54-4.0752,5.4274,5.4274,0,0,0-3.998-1.3457A5.67,5.67,0,0,0,533.4561,180.832Z" style="fill: #f2633d"/>
        <path d="M560.3262,177.0693q4.0956,0,5.9092,1.794a7.2023,7.2023,0,0,1,1.8134,5.3428v12.6748H565.24V184.2061q0-4.6011-5.2256-4.6026a18.3831,18.3831,0,0,0-5.1093.78v16.4971h-2.8076V178.98A17.9927,17.9927,0,0,1,560.3262,177.0693Z" style="fill: #f2633d"/>
        <path d="M577.877,195.8867a4.9087,4.9087,0,0,1-1.3653-3.7246v-12.168h-3.3935V177.42h3.3935v-5.499h2.8076v5.499h5.0313v2.5742h-5.0313v11.27a4.4346,4.4346,0,0,0,.5459,2.4961,2.3143,2.3143,0,0,0,2.0284.78,5.8439,5.8439,0,0,0,2.457-.4678v2.6514a8.0559,8.0559,0,0,1-1.3848.332,9.8682,9.8682,0,0,1-1.5791.1358A4.8636,4.8636,0,0,1,577.877,195.8867Z" style="fill: #f2633d"/>
        <path d="M604.7275,193.8389q-3.0234-3.3531-3.0234-9.9844,0-6.6285,3.0234-9.9834,3.0206-3.3544,9.0284-3.3545a18.0021,18.0021,0,0,1,7.917,1.9111v2.6914a15.9978,15.9978,0,0,0-7.6055-1.95q-4.9131,0-7.1758,2.5743t-2.2617,8.1113q0,5.5781,2.2422,8.1318t7.1953,2.5547a15.5074,15.5074,0,0,0,7.6055-1.9111v2.6914a18.4666,18.4666,0,0,1-7.917,1.8711Q607.7486,197.1924,604.7275,193.8389Z" style="fill: #f2633d"/>
        <path d="M641.3867,178.668a5.7385,5.7385,0,0,1,1.8916,4.6406v9.4385a3.6827,3.6827,0,0,1-2.3017,3.7636,17.0312,17.0312,0,0,1-6.3565.9551,9.8311,9.8311,0,0,1-5.2842-1.3652,4.9424,4.9424,0,0,1-2.2041-4.5625q0-3.4717,1.9112-5.0508a8.0249,8.0249,0,0,1,5.2646-1.5791,12.0769,12.0769,0,0,1,6.1231,1.3643v-2.3008q0-4.3668-5.1084-4.3682a12.8407,12.8407,0,0,0-3.3936.4688,7.8616,7.8616,0,0,0-2.8857,1.4033V178.668a9.8183,9.8183,0,0,1,3.1787-1.17,19.0783,19.0783,0,0,1,3.9971-.4287A7.7561,7.7561,0,0,1,641.3867,178.668Zm-2.165,15.8925a1.6148,1.6148,0,0,0,1.209-1.6572v-4.3681a10.7031,10.7031,0,0,0-2.4571-.8,14.27,14.27,0,0,0-2.9248-.293,6.5051,6.5051,0,0,0-3.7832.9365,3.5192,3.5192,0,0,0,.2344,5.6748,7.343,7.343,0,0,0,3.7832.916A13.5041,13.5041,0,0,0,639.2217,194.5605Z" style="fill: #f2633d"/>
        <path d="M650.4932,178.98a30.6751,30.6751,0,0,1,3.9189-1.2676,19.7171,19.7171,0,0,1,5.0508-.6426,5.39,5.39,0,0,1,1.248.2334v2.4961a15.0594,15.0594,0,0,0-1.872-.1172,16.9414,16.9414,0,0,0-2.3789.1563q-1.0929.1567-3.1592.5068v16.5362h-2.8076Z" style="fill: #f2633d"/>
        <path d="M678.8857,179.9551a12.5622,12.5622,0,0,1,1.9893,7.6826H666.6787a7.93,7.93,0,0,0,1.6377,5.3818,5.8858,5.8858,0,0,0,4.68,1.8721,12.6357,12.6357,0,0,0,6.6689-1.6768v2.8858a15.6585,15.6585,0,0,1-6.8242,1.3652,8.4778,8.4778,0,0,1-6.63-2.6328q-2.38-2.6324-2.38-7.7021,0-4.9527,2.2431-7.5079a7.9379,7.9379,0,0,1,6.2979-2.5537Q676.8193,177.0693,678.8857,179.9551Zm-10.413.8769q-1.3272,1.191-1.6768,4.2315H677.91a6.202,6.202,0,0,0-1.54-4.0752,5.4274,5.4274,0,0,0-3.998-1.3457A5.67,5.67,0,0,0,668.4727,180.832Z" style="fill: #f2633d"/>
        <path d="M687.1143,192.9805h3.8994v3.9h-3.8994Z" style="fill: #f2633d"/>
      </g>
    </g>
  </g>
</svg>
